<svg xmlns="http://www.w3.org/2000/svg" version="1.1" xmlns:xlink="http://www.w3.org/1999/xlink" xmlns:svgjs="http://svgjs.dev/svgjs" width="1000" height="1000" viewBox="0 0 1000 1000"><rect width="1000" height="1000" fill="#000000"></rect><g transform="matrix(0.7,0,0,0.7,149.57575757575756,383.26496748409306)"><svg viewBox="0 0 396 132" data-background-color="#c8c8c8" preserveAspectRatio="xMidYMid meet" height="333" width="1000" xmlns="http://www.w3.org/2000/svg" xmlns:xlink="http://www.w3.org/1999/xlink"><g id="tight-bounds" transform="matrix(1,0,0,1,0.2400000000000091,0.1047803178880713)"><svg viewBox="0 0 395.52 131.79043936422386" height="131.79043936422386" width="395.52"><g><svg viewBox="0 0 643.7075345284671 214.48851839999998" height="131.79043936422386" width="395.52"><g transform="matrix(1,0,0,1,0,35.871023190267636)"><svg viewBox="0 0 395.52000000000004 142.7464720194647" height="142.7464720194647" width="395.52000000000004"><g><svg viewBox="0 0 395.52000000000004 142.7464720194647" height="142.7464720194647" width="395.52000000000004"><g><svg viewBox="0 0 395.52000000000004 142.7464720194647" height="142.7464720194647" width="395.52000000000004"><g transform="matrix(1,0,0,1,0,0)"><svg width="395.52000000000004" viewBox="0.28 -30.96 98.63 35.6" height="142.7464720194647" data-palette-color="#000000"><path d="M1.76-19.12L1.76-19.12Q0.28-19.12 0.28-21.2 0.28-23.28 2.44-25.84L2.44-25.84Q6.04-30.16 12.44-30.84L12.44-30.84 14.64-30.96Q21.92-30.96 25.2-25.16L25.2-25.16Q27.16-21.6 27.16-16.96L27.16-16.96Q27.16-15.04 26.84-12.92L26.84-12.92Q25.68-5.8 21.32-0.84L21.32-0.84Q16.52 4.64 10.14 4.64 3.76 4.64 2.04 1.08L2.04 1.08Q1.52-0.04 1.52-1.3 1.52-2.56 2.2-3.96L2.2-3.96Q3.52-6.52 5.8-6.52L5.8-6.52Q6-6.52 6.06-6.3 6.12-6.08 6.02-5.84 5.92-5.6 5.72-5.6L5.72-5.6Q4.36-5.6 3.36-3.84L3.36-3.84Q2.72-2.6 2.72-1.56 2.72-0.52 3.12 0.36L3.12 0.36Q4.4 3.08 9.24 3.08L9.24 3.08Q14.72 3.08 19.16-2.52L19.16-2.52Q23.16-7.56 24.32-14.36L24.32-14.36Q24.72-16.56 24.72-18.52L24.72-18.52Q24.72-22.88 22.76-25.88L22.76-25.88Q20.16-29.92 14.6-29.92L14.6-29.92Q7.64-29.92 4.16-25.24L4.16-25.24Q2.4-22.84 2.4-20.76L2.4-20.76Q2.4-19.92 2.76-19.92L2.76-19.92Q2.52-19.12 1.76-19.12ZM7.52-3.96L7.52-3.96Q7.52-10.04 8.6-15.78 9.68-21.52 11.26-24.86 12.84-28.2 14.32-28.2L14.32-28.2Q14.96-28.2 14.96-27.56L14.96-27.56Q13.16-23.84 11.8-17.64L11.8-17.64Q9.28-6.32 9.28-1.28L9.28-1.28Q9.28-0.76 8.72-0.76L8.72-0.76Q7.52-0.76 7.52-3.96ZM37.32-11.6Q35.2-7.76 34.02-4.8 32.84-1.84 32.84-1.3 32.84-0.76 32.28-0.76L32.28-0.76Q31.08-0.76 31.08-3.96L31.08-3.96Q31.08-10.32 32.36-16.74 33.64-23.16 35.4-27.02 37.16-30.88 38.68-30.88L38.68-30.88Q39.32-30.88 39.32-30.24L39.32-30.24Q37.2-25.56 35.78-19.56 34.36-13.56 33.4-6.76L33.4-6.76 33.68-6.76Q38.76-19.24 43.64-19.24L43.64-19.24Q45.68-19.24 45.68-17.28L45.68-17.28Q45.4-16.36 44.96-14.86 44.52-13.36 43.8-9.48 43.08-5.6 43.08-2.68L43.08-2.68Q43.08 1.56 44.32 1.56L44.32 1.56Q44.76 1.56 45.2 1.18 45.64 0.8 45.8 0.8L45.8 0.8Q46.36 0.8 45.76 1.68L45.76 1.68Q45.6 1.96 45.06 2.44 44.52 2.92 44 2.92L44 2.92Q42.44 2.92 41.58 0.74 40.72-1.44 40.72-4.92L40.72-4.92Q40.72-10.8 42.48-17.04L42.48-17.04Q42.56-17.64 42-17.56L42-17.56Q41.72-17.52 41.44-17.24L41.44-17.24Q39.44-15.44 37.32-11.6ZM60.95-11.48L60.95-11.48Q59.44-11.48 59.44-14.8L59.44-14.8Q59.44-16.68 60.16-18.32L60.16-18.32Q57.44-15.96 54.08-9.54 50.71-3.12 50.71-1.16L50.71-1.16Q50.71-0.68 50.08-0.68L50.08-0.68Q48.91-0.68 48.91-3.84L48.91-3.84Q48.91-9.8 50.12-14.64 51.31-19.48 53.03-19.48L53.03-19.48Q53.8-19.48 53.8-18.6L53.8-18.6Q51.95-12.76 51.16-6.64L51.16-6.64 51.44-6.64Q54.67-14.12 58.59-18.32L58.59-18.32Q60.84-20.72 62.67-20.72L62.67-20.72Q63.08-20.72 63.34-20.48 63.59-20.24 63.59-19.88L63.59-19.88Q63.31-19.6 62.91-19.04 62.52-18.48 61.84-16.38 61.16-14.28 61.16-11.8L61.16-11.8Q61.16-11.48 60.95-11.48ZM77.55 3L77.55 3Q78.03 3 78.45 2.58 78.87 2.16 79.23 1.28L79.23 1.28Q79.27 0.92 79.71 0.92 80.15 0.92 80.05 1.28 79.95 1.64 79.73 2.16 79.51 2.68 78.81 3.54 78.11 4.4 77.39 4.4L77.39 4.4Q75.79 4.4 74.91 2.4L74.91 2.4Q73.99 0.4 73.99-2.54 73.99-5.48 74.43-8.6L74.43-8.6 74.07-8.6Q69.23-0.16 66.63-0.16L66.63-0.16Q63.55-0.16 63.55-4.86 63.55-9.56 65.55-14.24L65.55-14.24Q67.75-19.4 69.43-19.4L69.43-19.4Q70.15-19.4 70.15-18.52L70.15-18.52Q68.47-14.08 67.27-9.88 66.07-5.68 66.07-3.62 66.07-1.56 67.03-1.56L67.03-1.56Q67.71-1.56 69.05-3.2 70.39-4.84 71.79-7.2L71.79-7.2Q74.79-12.28 76.37-15.84 77.95-19.4 79.63-19.4L79.63-19.4Q80.43-19.4 80.43-18.52L80.43-18.52Q77.87-13.44 76.79-6.4L76.79-6.4Q76.35-3.6 76.35-0.92L76.35-0.92Q76.35 3 77.55 3ZM95.19-18.12L95.19-18.12Q96.35-17.24 97.41-17.24 98.47-17.24 98.91-17.52L98.91-17.52Q98.91-17 98.45-16.54 97.99-16.08 97.13-16.08 96.27-16.08 95.27-16.48L95.27-16.48Q95.15-12.72 93.83-8.78 92.51-4.84 90.43-2.18 88.35 0.48 86.29 0.48 84.23 0.48 83.35-1.22 82.47-2.92 82.47-5.12L82.47-5.12Q82.47-7.76 83.21-10.78 83.95-13.8 84.95-15.64 85.95-17.48 86.75-17.48 87.55-17.48 87.55-16.64L87.55-16.64Q85.03-7.92 85.03-4.4 85.03-0.88 86.59-0.88L86.59-0.88Q87.95-0.88 89.69-3.24 91.43-5.6 92.71-9.46 93.99-13.32 93.99-17L93.99-17 93.99-17.24Q92.83-18.08 92.11-19.24 91.39-20.4 91.39-20.98 91.39-21.56 91.91-22.04 92.43-22.52 93.03-22.52L93.03-22.52Q93.75-22.52 94.37-21.18 94.99-19.84 95.19-18.12Z" opacity="1" transform="matrix(1,0,0,1,0,0)" fill="#ffffff" class="undefined-text-0" data-fill-palette-color="primary" id="text-0"></path></svg></g></svg></g></svg></g></svg></g><g transform="matrix(1,0,0,1,429.21901612846716,0)"><svg viewBox="0 0 214.48851839999998 214.48851839999998" height="214.48851839999998" width="214.48851839999998"><g><svg></svg></g><g id="icon-0"><svg viewBox="0 0 214.48851839999998 214.48851839999998" height="214.48851839999998" width="214.48851839999998"><g><rect width="195.02567136" height="195.02567136" x="9.731423519999993" y="9.731423519999993" fill="#ffffff" data-fill-palette-color="accent"></rect><rect width="195.02567136" height="195.02567136" x="-5.329070518200751e-15" y="-5.329070518200751e-15" fill="#ffffff" opacity="0.5" data-fill-palette-color="accent"></rect></g><g transform="matrix(1,0,0,1,45.77481882180896,27.80406719999999)"><svg viewBox="0 0 122.93888075638206 158.880384" height="158.880384" width="122.93888075638206"><g><svg xmlns="http://www.w3.org/2000/svg" xmlns:xlink="http://www.w3.org/1999/xlink" version="1.1" x="0" y="0" viewBox="12.983 1 75.68599999999999 97.813" enable-background="new 0 0 100 100" xml:space="preserve" height="158.880384" width="122.93888075638206" class="icon-gn-0" data-fill-palette-color="background" id="gn-0"><g fill="#c8c8c8" data-fill-palette-color="background"><polygon fill-rule="evenodd" clip-rule="evenodd" points="12.983,10.59 30.001,98.813 24.129,39.764 53.15,37.872 53.096,27.989    64.549,1 53.622,18.977  " fill="#c8c8c8" data-fill-palette-color="background"></polygon><polygon fill-rule="evenodd" clip-rule="evenodd" points="59.389,54.548 64.549,1.007 55.809,40.723 36.197,41.768 37.767,62.23    30.001,98.813 42.058,58.914  " fill="#c8c8c8" data-fill-palette-color="background"></polygon><polygon fill-rule="evenodd" clip-rule="evenodd" points="62.8,67.182 63.349,56.729 47.37,60.484 47.338,72.281 30.001,98.813    51.681,71.197  " fill="#c8c8c8" data-fill-palette-color="background"></polygon><polygon fill-rule="evenodd" clip-rule="evenodd" points="65.711,62.394 80.552,57.663 82.061,45.131 66.162,47.226  " fill="#c8c8c8" data-fill-palette-color="background"></polygon><polygon fill-rule="evenodd" clip-rule="evenodd" points="72.07,44.502 83.058,43.085 84.639,32.807 76.56,32.434 64.549,1    72.979,31.967  " fill="#c8c8c8" data-fill-palette-color="background"></polygon><polygon fill-rule="evenodd" clip-rule="evenodd" points="87.413,31.294 88.669,21.788 79.125,19.094 64.549,1 79.032,23.437    78.61,30.437  " fill="#c8c8c8" data-fill-palette-color="background"></polygon></g></svg></g></svg></g></svg></g></svg></g></svg></g><defs></defs></svg><rect width="395.52" height="131.79043936422386" fill="none" stroke="none" visibility="hidden"></rect></g></svg></g></svg>